STARTFONT 2.1
FONT -FontForge-Boston-Regular-R-Normal--30-300-72-72-P-171-MacRoman-0
SIZE 30 72 72
FONTBOUNDINGBOX 253 30 0 -6
COMMENT "Generated by fontforge, http://fontforge.sourceforge.net"
STARTPROPERTIES 30
FOUNDRY "FontForge"
FAMILY_NAME "Boston"
WEIGHT_NAME "Regular"
SLANT "R"
SETWIDTH_NAME "Normal"
ADD_STYLE_NAME ""
PIXEL_SIZE 30
POINT_SIZE 300
RESOLUTION_X 72
RESOLUTION_Y 72
SPACING "P"
AVERAGE_WIDTH 171
CHARSET_REGISTRY "MacRoman"
CHARSET_ENCODING "0"
FONTNAME_REGISTRY ""
CHARSET_COLLECTIONS "MacRoman"
FONT_NAME "Boston"
FACE_NAME "Boston"
FONT_VERSION "001.000"
FONT_ASCENT 24
FONT_DESCENT 6
UNDERLINE_POSITION -3
UNDERLINE_THICKNESS 2
X_HEIGHT 11
CAP_HEIGHT 17
RAW_ASCENT 800
RAW_DESCENT 200
NORM_SPACE 14
AVG_LOWERCASE_WIDTH 152
AVG_UPPERCASE_WIDTH 186
ENDPROPERTIES
CHARS 229
STARTCHAR uni0000
ENCODING 0
SWIDTH 0 0
DWIDTH 0 0
BBX 1 1 0 0
BITMAP
00
ENDCHAR
STARTCHAR uni0009
ENCODING 9
SWIDTH 0 0
DWIDTH 18 0
BBX 1 1 0 0
BITMAP
00
ENDCHAR
STARTCHAR uni000A
ENCODING 10
SWIDTH 0 0
DWIDTH 0 0
BBX 1 1 0 0
BITMAP
00
ENDCHAR
STARTCHAR uni000B
ENCODING 11
SWIDTH 0 0
DWIDTH 0 0
BBX 1 1 0 0
BITMAP
00
ENDCHAR
STARTCHAR uni000C
ENCODING 12
SWIDTH 0 0
DWIDTH 0 0
BBX 1 1 0 0
BITMAP
00
ENDCHAR
STARTCHAR uni000D
ENCODING 13
SWIDTH 0 0
DWIDTH 0 0
BBX 1 1 0 0
BITMAP
00
ENDCHAR
STARTCHAR uni001F
ENCODING 31
SWIDTH 0 0
DWIDTH 0 0
BBX 1 1 0 0
BITMAP
00
ENDCHAR
STARTCHAR space
ENCODING 32
SWIDTH 461 0
DWIDTH 14 0
BBX 1 1 14 -6
BITMAP
00
ENDCHAR
STARTCHAR exclam
ENCODING 33
SWIDTH 461 0
DWIDTH 14 0
BBX 1 18 5 0
BITMAP
80
80
80
80
80
80
80
80
80
80
80
80
80
00
00
00
80
80
ENDCHAR
STARTCHAR quotedbl
ENCODING 34
SWIDTH 461 0
DWIDTH 12 0
BBX 5 5 4 13
BITMAP
88
88
88
88
88
ENDCHAR
STARTCHAR numbersign
ENCODING 35
SWIDTH 615 0
DWIDTH 16 0
BBX 13 13 2 7
BITMAP
0440
0440
0440
0440
7FF8
0880
0880
0880
FFF0
1100
1100
1100
1100
ENDCHAR
STARTCHAR dollar
ENCODING 36
SWIDTH 615 0
DWIDTH 18 0
BBX 13 24 2 -3
BITMAP
0200
0200
0200
0F88
3268
4218
8208
8208
8200
4200
3200
0F80
0260
0210
0208
0208
8208
8208
C210
B260
8F80
0200
0200
0200
ENDCHAR
STARTCHAR percent
ENCODING 37
SWIDTH 692 0
DWIDTH 20 0
BBX 17 18 2 0
BITMAP
3FFF00
420080
810080
810100
810200
810400
421800
3C2000
004000
008000
031E00
042100
084080
104080
204080
204080
402100
401E00
ENDCHAR
STARTCHAR ampersand
ENCODING 38
SWIDTH 692 0
DWIDTH 16 0
BBX 13 18 2 0
BITMAP
1C00
2200
4100
4100
4100
2200
1400
0800
1400
2200
4100
8088
8050
8020
8050
4088
2108
1E08
ENDCHAR
STARTCHAR quotesingle
ENCODING 39
SWIDTH 307 0
DWIDTH 8 0
BBX 1 5 4 13
BITMAP
80
80
80
80
80
ENDCHAR
STARTCHAR parenleft
ENCODING 40
SWIDTH 461 0
DWIDTH 14 0
BBX 7 27 6 -5
BITMAP
02
04
08
10
20
20
40
40
40
80
80
80
80
80
80
80
80
80
40
40
40
20
20
10
08
04
02
ENDCHAR
STARTCHAR parenright
ENCODING 41
SWIDTH 461 0
DWIDTH 14 0
BBX 7 27 2 -5
BITMAP
80
40
20
10
08
08
04
04
04
02
02
02
02
02
02
02
02
02
04
04
04
08
08
10
20
40
80
ENDCHAR
STARTCHAR asterisk
ENCODING 42
SWIDTH 461 0
DWIDTH 12 0
BBX 9 9 2 9
BITMAP
0800
8880
4900
2A00
1C00
2A00
4900
8880
0800
ENDCHAR
STARTCHAR plus
ENCODING 43
SWIDTH 615 0
DWIDTH 18 0
BBX 15 15 2 1
BITMAP
0100
0100
0100
0100
0100
0100
0100
FFFE
0100
0100
0100
0100
0100
0100
0100
ENDCHAR
STARTCHAR comma
ENCODING 44
SWIDTH 461 0
DWIDTH 14 0
BBX 3 6 4 -4
BITMAP
E0
20
20
20
40
80
ENDCHAR
STARTCHAR hyphen
ENCODING 45
SWIDTH 615 0
DWIDTH 18 0
BBX 14 1 2 8
BITMAP
FFFC
ENDCHAR
STARTCHAR period
ENCODING 46
SWIDTH 461 0
DWIDTH 14 0
BBX 1 2 6 0
BITMAP
80
80
ENDCHAR
STARTCHAR slash
ENCODING 47
SWIDTH 461 0
DWIDTH 12 0
BBX 9 27 2 -5
BITMAP
0080
0080
0080
0100
0100
0100
0200
0200
0200
0400
0400
0400
0800
0800
0800
1000
1000
1000
2000
2000
2000
4000
4000
4000
8000
8000
8000
ENDCHAR
STARTCHAR zero
ENCODING 48
SWIDTH 538 0
DWIDTH 16 0
BBX 11 18 3 0
BITMAP
0E00
3180
4040
4040
8020
8020
8020
8020
8020
8020
8020
8020
8020
8020
4040
4040
3180
0E00
ENDCHAR
STARTCHAR one
ENCODING 49
SWIDTH 538 0
DWIDTH 16 0
BBX 11 18 3 0
BITMAP
0400
0C00
1400
2400
4400
8400
0400
0400
0400
0400
0400
0400
0400
0400
0400
0400
0400
FFE0
ENDCHAR
STARTCHAR two
ENCODING 50
SWIDTH 538 0
DWIDTH 16 0
BBX 11 18 3 0
BITMAP
0E00
3180
4040
4040
8020
8020
0020
0020
0040
0040
0080
0300
0400
0800
3000
4020
8020
FFE0
ENDCHAR
STARTCHAR three
ENCODING 51
SWIDTH 538 0
DWIDTH 16 0
BBX 11 18 3 0
BITMAP
FFE0
8040
8080
0100
0200
0400
0800
1E00
0180
0040
0040
0020
0020
0020
8040
4040
3180
0E00
ENDCHAR
STARTCHAR four
ENCODING 52
SWIDTH 538 0
DWIDTH 16 0
BBX 12 18 2 0
BITMAP
0040
00C0
0140
0240
0440
0840
1040
1040
2040
4040
8040
FFF0
0040
0040
0040
0040
0040
01F0
ENDCHAR
STARTCHAR five
ENCODING 53
SWIDTH 538 0
DWIDTH 16 0
BBX 11 18 3 0
BITMAP
FFC0
8000
8000
8000
8000
8000
8E00
B180
C040
8040
0020
0020
0020
0020
8040
4040
3180
0E00
ENDCHAR
STARTCHAR six
ENCODING 54
SWIDTH 538 0
DWIDTH 16 0
BBX 11 18 3 0
BITMAP
0300
0C00
1000
2000
2000
4000
4000
8000
9E00
A180
C040
8040
8020
8020
4040
4040
3180
0E00
ENDCHAR
STARTCHAR seven
ENCODING 55
SWIDTH 538 0
DWIDTH 16 0
BBX 12 18 2 0
BITMAP
FFF0
8010
8020
0020
0040
0040
0080
0080
0100
0100
0200
0200
0400
0400
0800
0800
1000
1000
ENDCHAR
STARTCHAR eight
ENCODING 56
SWIDTH 538 0
DWIDTH 16 0
BBX 12 18 2 0
BITMAP
0F00
1080
2040
4020
4020
4020
2040
1080
0F00
30C0
4020
4020
8010
8010
4020
4020
30C0
0F00
ENDCHAR
STARTCHAR nine
ENCODING 57
SWIDTH 538 0
DWIDTH 16 0
BBX 11 18 3 0
BITMAP
0E00
3180
4040
4040
8020
8020
4020
4060
30A0
0F20
0020
0040
0040
0080
0080
0100
0600
1800
ENDCHAR
STARTCHAR colon
ENCODING 58
SWIDTH 461 0
DWIDTH 14 0
BBX 1 12 6 0
BITMAP
80
80
00
00
00
00
00
00
00
00
80
80
ENDCHAR
STARTCHAR semicolon
ENCODING 59
SWIDTH 461 0
DWIDTH 14 0
BBX 3 16 5 -4
BITMAP
40
40
00
00
00
00
00
00
00
00
E0
20
20
20
40
80
ENDCHAR
STARTCHAR less
ENCODING 60
SWIDTH 615 0
DWIDTH 18 0
BBX 14 13 2 2
BITMAP
000C
0030
00C0
0300
0C00
3000
C000
3000
0C00
0300
00C0
0030
000C
ENDCHAR
STARTCHAR equal
ENCODING 61
SWIDTH 615 0
DWIDTH 18 0
BBX 14 6 2 5
BITMAP
FFFC
0000
0000
0000
0000
FFFC
ENDCHAR
STARTCHAR greater
ENCODING 62
SWIDTH 615 0
DWIDTH 18 0
BBX 14 13 2 2
BITMAP
C000
3000
0C00
0300
00C0
0030
000C
0030
00C0
0300
0C00
3000
C000
ENDCHAR
STARTCHAR question
ENCODING 63
SWIDTH 538 0
DWIDTH 16 0
BBX 10 18 3 0
BITMAP
1E00
2100
4080
8040
8040
8040
0040
0080
0100
0200
0400
0400
0400
0000
0000
0000
0400
0400
ENDCHAR
STARTCHAR at
ENCODING 64
SWIDTH 692 0
DWIDTH 20 0
BBX 17 18 2 -2
BITMAP
07F000
180C00
200200
400100
41E100
821080
841080
841080
841080
841080
841080
841080
822880
41C700
400000
200000
180000
07F000
ENDCHAR
STARTCHAR A
ENCODING 65
SWIDTH 769 0
DWIDTH 20 0
BBX 17 18 2 0
BITMAP
008000
008000
014000
014000
022000
022000
041000
041000
041000
080800
080800
0FF800
100400
100400
100400
200200
200200
F80F80
ENDCHAR
STARTCHAR B
ENCODING 66
SWIDTH 615 0
DWIDTH 18 0
BBX 15 18 2 0
BITMAP
FFE0
2010
2008
2008
2008
2008
2010
3FE0
2018
2004
2004
2002
2002
2002
2004
2004
2018
FFE0
ENDCHAR
STARTCHAR C
ENCODING 67
SWIDTH 538 0
DWIDTH 16 0
BBX 13 18 2 0
BITMAP
0788
1868
2018
4008
4008
8000
8000
8000
8000
8000
8000
8000
8000
4008
4008
2010
1860
0780
ENDCHAR
STARTCHAR D
ENCODING 68
SWIDTH 615 0
DWIDTH 18 0
BBX 15 18 2 0
BITMAP
FFC0
2030
2008
2004
2004
2002
2002
2002
2002
2002
2002
2002
2002
2004
2004
2008
2030
FFC0
ENDCHAR
STARTCHAR E
ENCODING 69
SWIDTH 615 0
DWIDTH 16 0
BBX 13 18 2 0
BITMAP
FFF8
2008
2008
2000
2000
2000
2080
2080
3F80
2080
2080
2000
2000
2000
2000
2008
2008
FFF8
ENDCHAR
STARTCHAR F
ENCODING 70
SWIDTH 615 0
DWIDTH 16 0
BBX 13 18 2 0
BITMAP
FFF8
2008
2008
2000
2000
2000
2080
2080
3F80
2080
2080
2000
2000
2000
2000
2000
2000
F800
ENDCHAR
STARTCHAR G
ENCODING 71
SWIDTH 615 0
DWIDTH 16 0
BBX 13 18 2 0
BITMAP
0790
1870
2010
4010
4000
8000
8000
8000
8000
81F8
8008
8008
8008
4008
4008
2018
1868
0788
ENDCHAR
STARTCHAR H
ENCODING 72
SWIDTH 692 0
DWIDTH 18 0
BBX 15 18 2 0
BITMAP
F83E
2008
2008
2008
2008
2008
2008
2008
3FF8
2008
2008
2008
2008
2008
2008
2008
2008
F83E
ENDCHAR
STARTCHAR I
ENCODING 73
SWIDTH 384 0
DWIDTH 10 0
BBX 5 18 3 0
BITMAP
F8
20
20
20
20
20
20
20
20
20
20
20
20
20
20
20
20
F8
ENDCHAR
STARTCHAR J
ENCODING 74
SWIDTH 615 0
DWIDTH 16 0
BBX 13 18 2 0
BITMAP
00F8
0020
0020
0020
0020
0020
0020
0020
0020
0020
8020
8020
8020
8020
4040
4040
3180
0E00
ENDCHAR
STARTCHAR K
ENCODING 75
SWIDTH 692 0
DWIDTH 18 0
BBX 15 18 2 0
BITMAP
F83E
2008
2010
2020
2040
2080
2100
2200
2400
2C00
3200
2100
2080
2040
2020
2010
2008
F83E
ENDCHAR
STARTCHAR L
ENCODING 76
SWIDTH 615 0
DWIDTH 16 0
BBX 13 18 2 0
BITMAP
F800
2000
2000
2000
2000
2000
2000
2000
2000
2000
2000
2000
2000
2000
2008
2008
2008
FFF8
ENDCHAR
STARTCHAR M
ENCODING 77
SWIDTH 923 0
DWIDTH 26 0
BBX 23 18 2 0
BITMAP
F0001E
280028
280028
240048
240048
220088
220088
210108
210108
208208
208208
204408
204408
202808
202808
201008
201008
F8003E
ENDCHAR
STARTCHAR N
ENCODING 78
SWIDTH 769 0
DWIDTH 20 0
BBX 17 18 2 0
BITMAP
F00F80
280200
240200
240200
220200
220200
210200
210200
208200
204200
204200
202200
202200
201200
201200
200A00
200600
F80600
ENDCHAR
STARTCHAR O
ENCODING 79
SWIDTH 615 0
DWIDTH 18 0
BBX 15 18 2 0
BITMAP
07C0
1830
2008
4004
4004
8002
8002
8002
8002
8002
8002
8002
8002
4004
4004
2008
1830
07C0
ENDCHAR
STARTCHAR P
ENCODING 80
SWIDTH 615 0
DWIDTH 18 0
BBX 15 18 2 0
BITMAP
FFE0
2018
2004
2004
2002
2002
2002
2004
2004
2018
3FE0
2000
2000
2000
2000
2000
2000
F800
ENDCHAR
STARTCHAR Q
ENCODING 81
SWIDTH 615 0
DWIDTH 18 0
BBX 15 20 2 -2
BITMAP
07C0
1830
2008
4004
4004
8002
8002
8002
8002
8002
8002
8002
8002
40C4
4024
2028
1810
07EC
0002
0002
ENDCHAR
STARTCHAR R
ENCODING 82
SWIDTH 692 0
DWIDTH 20 0
BBX 17 18 2 0
BITMAP
FFC000
203000
200800
200800
200400
200400
200400
200800
200800
203000
3FC000
204000
202000
201000
200800
200400
200200
F80F80
ENDCHAR
STARTCHAR S
ENCODING 83
SWIDTH 615 0
DWIDTH 16 0
BBX 13 18 2 0
BITMAP
0F88
3068
4018
8008
8008
8000
4000
3000
0F80
0060
0010
0008
0008
8008
8008
C010
B060
8F80
ENDCHAR
STARTCHAR T
ENCODING 84
SWIDTH 615 0
DWIDTH 16 0
BBX 13 18 2 0
BITMAP
FFF8
8208
8208
0200
0200
0200
0200
0200
0200
0200
0200
0200
0200
0200
0200
0200
0200
0F80
ENDCHAR
STARTCHAR U
ENCODING 85
SWIDTH 769 0
DWIDTH 20 0
BBX 17 18 2 0
BITMAP
F80F80
200200
200200
200200
200200
200200
200200
200200
200200
200200
200200
200200
200200
200200
100400
100400
0C1800
03E000
ENDCHAR
STARTCHAR V
ENCODING 86
SWIDTH 769 0
DWIDTH 21 0
BBX 19 18 1 0
BITMAP
F803E0
200080
200080
100100
100100
100100
080200
080200
040400
040400
020800
020800
011000
011000
00A000
00A000
004000
004000
ENDCHAR
STARTCHAR W
ENCODING 87
SWIDTH 1076 0
DWIDTH 28 0
BBX 25 18 2 0
BITMAP
F8080F80
20080200
20080200
10140400
10140400
10140400
08220800
08220800
08220800
04411000
04411000
04411000
0280A000
0280A000
0280A000
01004000
01004000
01004000
ENDCHAR
STARTCHAR X
ENCODING 88
SWIDTH 692 0
DWIDTH 20 0
BBX 17 18 2 0
BITMAP
F80F80
200200
100400
080800
041000
041000
022000
014000
008000
014000
022000
041000
041000
080800
100400
200200
200200
F80F80
ENDCHAR
STARTCHAR Y
ENCODING 89
SWIDTH 769 0
DWIDTH 20 0
BBX 17 18 2 0
BITMAP
F80F80
200200
200200
100400
080800
080800
041000
022000
022000
014000
008000
008000
008000
008000
008000
008000
008000
03E000
ENDCHAR
STARTCHAR Z
ENCODING 90
SWIDTH 615 0
DWIDTH 16 0
BBX 13 18 2 0
BITMAP
FFF8
8008
8010
0020
0040
0040
0080
0100
0200
0200
0400
0800
1000
1000
2000
4008
8008
FFF8
ENDCHAR
STARTCHAR bracketleft
ENCODING 91
SWIDTH 461 0
DWIDTH 12 0
BBX 6 27 5 -5
BITMAP
FC
80
80
80
80
80
80
80
80
80
80
80
80
80
80
80
80
80
80
80
80
80
80
80
80
80
FC
ENDCHAR
STARTCHAR backslash
ENCODING 92
SWIDTH 461 0
DWIDTH 12 0
BBX 9 27 2 -5
BITMAP
8000
8000
8000
4000
4000
4000
2000
2000
2000
1000
1000
1000
0800
0800
0800
0400
0400
0400
0200
0200
0200
0100
0100
0100
0080
0080
0080
ENDCHAR
STARTCHAR bracketright
ENCODING 93
SWIDTH 461 0
DWIDTH 12 0
BBX 6 27 2 -5
BITMAP
FC
04
04
04
04
04
04
04
04
04
04
04
04
04
04
04
04
04
04
04
04
04
04
04
04
04
FC
ENDCHAR
STARTCHAR asciicircum
ENCODING 94
SWIDTH 461 0
DWIDTH 12 0
BBX 7 4 3 14
BITMAP
10
28
44
82
ENDCHAR
STARTCHAR underscore
ENCODING 95
SWIDTH 538 0
DWIDTH 14 0
BBX 14 1 0 0
BITMAP
FFFC
ENDCHAR
STARTCHAR grave
ENCODING 96
SWIDTH 307 0
DWIDTH 9 0
BBX 4 4 3 14
BITMAP
80
40
20
10
ENDCHAR
STARTCHAR a
ENCODING 97
SWIDTH 615 0
DWIDTH 16 0
BBX 13 12 2 0
BITMAP
1E00
6180
0040
0020
0FA0
3060
4020
8020
8060
80A0
4320
3C38
ENDCHAR
STARTCHAR b
ENCODING 98
SWIDTH 615 0
DWIDTH 16 0
BBX 13 18 2 0
BITMAP
E000
2000
2000
2000
2000
2000
2780
2860
3010
2010
2008
2008
2008
2008
2010
3010
2860
E780
ENDCHAR
STARTCHAR c
ENCODING 99
SWIDTH 538 0
DWIDTH 14 0
BBX 11 12 2 0
BITMAP
0F00
30C0
4020
4000
8000
8000
8000
8000
4000
4020
30C0
0F00
ENDCHAR
STARTCHAR d
ENCODING 100
SWIDTH 615 0
DWIDTH 16 0
BBX 13 18 2 0
BITMAP
00E0
0020
0020
0020
0020
0020
1F20
20A0
4060
4020
8020
8020
8020
8020
4020
4060
30A0
0F38
ENDCHAR
STARTCHAR e
ENCODING 101
SWIDTH 538 0
DWIDTH 14 0
BBX 11 12 2 0
BITMAP
0F80
3040
4020
4020
80C0
8300
8C00
B000
4000
4000
3040
0F80
ENDCHAR
STARTCHAR f
ENCODING 102
SWIDTH 384 0
DWIDTH 10 0
BBX 7 18 2 0
BITMAP
0E
10
20
20
20
20
FC
20
20
20
20
20
20
20
20
20
20
F8
ENDCHAR
STARTCHAR g
ENCODING 103
SWIDTH 538 0
DWIDTH 14 0
BBX 11 17 2 -5
BITMAP
3C60
4280
8100
8100
8100
8100
8100
4200
3C00
4000
3F80
4040
8020
8020
8020
4040
3F80
ENDCHAR
STARTCHAR h
ENCODING 104
SWIDTH 692 0
DWIDTH 18 0
BBX 15 18 2 0
BITMAP
E000
2000
2000
2000
2000
2000
21E0
2610
2808
3008
2008
2008
2008
2008
2008
2008
2008
F83E
ENDCHAR
STARTCHAR i
ENCODING 105
SWIDTH 307 0
DWIDTH 8 0
BBX 5 18 2 0
BITMAP
20
20
00
00
00
00
E0
20
20
20
20
20
20
20
20
20
20
F8
ENDCHAR
STARTCHAR j
ENCODING 106
SWIDTH 384 0
DWIDTH 12 0
BBX 9 23 1 -5
BITMAP
0080
0080
0000
0000
0000
0000
0380
0080
0080
0080
0080
0080
0080
0080
0080
0080
0080
0080
8080
8080
8080
4100
3E00
ENDCHAR
STARTCHAR k
ENCODING 107
SWIDTH 615 0
DWIDTH 16 0
BBX 13 18 2 0
BITMAP
E000
2000
2000
2000
2000
2000
21F0
2040
2080
2100
2200
2400
2A00
3100
2080
2040
2020
F8F8
ENDCHAR
STARTCHAR l
ENCODING 108
SWIDTH 307 0
DWIDTH 8 0
BBX 5 18 2 0
BITMAP
E0
20
20
20
20
20
20
20
20
20
20
20
20
20
20
20
20
F8
ENDCHAR
STARTCHAR m
ENCODING 109
SWIDTH 1076 0
DWIDTH 28 0
BBX 25 12 2 0
BITMAP
E1E07800
26118400
280A0200
300C0200
20080200
20080200
20080200
20080200
20080200
20080200
20080200
F83E0F80
ENDCHAR
STARTCHAR n
ENCODING 110
SWIDTH 692 0
DWIDTH 18 0
BBX 15 12 2 0
BITMAP
E1E0
2610
2808
3008
2008
2008
2008
2008
2008
2008
2008
F83E
ENDCHAR
STARTCHAR o
ENCODING 111
SWIDTH 538 0
DWIDTH 14 0
BBX 11 12 2 0
BITMAP
0E00
3180
4040
4040
8020
8020
8020
8020
4040
4040
3180
0E00
ENDCHAR
STARTCHAR p
ENCODING 112
SWIDTH 615 0
DWIDTH 16 0
BBX 13 17 2 -5
BITMAP
E780
2860
3010
2010
2008
2008
2008
2008
2010
3010
2860
2780
2000
2000
2000
2000
F800
ENDCHAR
STARTCHAR q
ENCODING 113
SWIDTH 615 0
DWIDTH 16 0
BBX 13 17 2 -5
BITMAP
0F38
30A0
4060
4020
8020
8020
8020
8020
4020
4060
30A0
0F20
0020
0020
0020
0020
00F8
ENDCHAR
STARTCHAR r
ENCODING 114
SWIDTH 538 0
DWIDTH 14 0
BBX 11 12 2 0
BITMAP
E1E0
2600
2800
3000
2000
2000
2000
2000
2000
2000
2000
F800
ENDCHAR
STARTCHAR s
ENCODING 115
SWIDTH 461 0
DWIDTH 12 0
BBX 9 12 2 0
BITMAP
3E00
4100
8000
8000
4000
3E00
0100
0080
0080
8080
4100
3E00
ENDCHAR
STARTCHAR t
ENCODING 116
SWIDTH 461 0
DWIDTH 12 0
BBX 9 16 2 0
BITMAP
1000
1000
1000
1000
FF00
1000
1000
1000
1000
1000
1000
1000
1000
1080
0900
0600
ENDCHAR
STARTCHAR u
ENCODING 117
SWIDTH 692 0
DWIDTH 18 0
BBX 15 12 2 0
BITMAP
E038
2008
2008
2008
2008
2008
2008
2008
2018
2028
10C8
0F0E
ENDCHAR
STARTCHAR v
ENCODING 118
SWIDTH 692 0
DWIDTH 18 0
BBX 17 12 1 0
BITMAP
F80F80
200200
100400
100400
080800
080800
041000
022000
022000
014000
014000
008000
ENDCHAR
STARTCHAR w
ENCODING 119
SWIDTH 923 0
DWIDTH 24 0
BBX 23 12 1 0
BITMAP
F8003E
200008
101010
101010
082820
082820
044440
044440
028280
028280
010100
010100
ENDCHAR
STARTCHAR x
ENCODING 120
SWIDTH 615 0
DWIDTH 16 0
BBX 13 12 2 0
BITMAP
F8F8
2020
1040
0880
0500
0200
0500
0880
1040
2020
2020
F8F8
ENDCHAR
STARTCHAR y
ENCODING 121
SWIDTH 692 0
DWIDTH 18 0
BBX 17 17 1 -5
BITMAP
F80F80
200200
100400
100400
080800
041000
041000
022000
014000
014000
008000
008000
010000
010000
020000
040000
380000
ENDCHAR
STARTCHAR z
ENCODING 122
SWIDTH 538 0
DWIDTH 14 0
BBX 11 12 2 0
BITMAP
FFE0
8020
8040
0080
0100
0600
0800
1000
2000
4020
8020
FFE0
ENDCHAR
STARTCHAR braceleft
ENCODING 123
SWIDTH 538 0
DWIDTH 14 0
BBX 9 27 4 -5
BITMAP
0380
0400
0800
0800
0800
0800
0800
0800
0800
0800
0800
0800
1000
E000
1000
0800
0800
0800
0800
0800
0800
0800
0800
0800
0800
0400
0380
ENDCHAR
STARTCHAR bar
ENCODING 124
SWIDTH 153 0
DWIDTH 4 0
BBX 1 27 2 -5
BITMAP
80
80
80
80
80
80
80
80
80
80
80
80
80
80
80
80
80
80
80
80
80
80
80
80
80
80
80
ENDCHAR
STARTCHAR braceright
ENCODING 125
SWIDTH 538 0
DWIDTH 14 0
BBX 9 27 2 -5
BITMAP
E000
1000
0800
0800
0800
0800
0800
0800
0800
0800
0800
0800
0400
0380
0400
0800
0800
0800
0800
0800
0800
0800
0800
0800
0800
1000
E000
ENDCHAR
STARTCHAR asciitilde
ENCODING 126
SWIDTH 615 0
DWIDTH 18 0
BBX 14 4 2 6
BITMAP
1C04
2208
4110
80E0
ENDCHAR
STARTCHAR uni007F
ENCODING 127
SWIDTH 0 0
DWIDTH 0 0
BBX 1 1 0 -6
BITMAP
00
ENDCHAR
STARTCHAR Adieresis
ENCODING 128
SWIDTH 769 0
DWIDTH 20 0
BBX 17 22 2 0
BITMAP
041000
041000
000000
000000
008000
008000
014000
014000
022000
022000
041000
041000
041000
080800
080800
0FF800
100400
100400
100400
200200
200200
F80F80
ENDCHAR
STARTCHAR Aring
ENCODING 129
SWIDTH 769 0
DWIDTH 20 0
BBX 17 24 2 0
BITMAP
01C000
022000
022000
022000
01C000
000000
008000
008000
014000
014000
022000
022000
041000
041000
041000
080800
080800
0FF800
100400
100400
100400
200200
200200
F80F80
ENDCHAR
STARTCHAR Ccedilla
ENCODING 130
SWIDTH 538 0
DWIDTH 16 0
BBX 13 23 2 -5
BITMAP
0788
1868
2018
4008
4008
8000
8000
8000
8000
8000
8000
8000
8000
4008
4008
2010
1860
0780
0180
0040
0040
0080
0700
ENDCHAR
STARTCHAR Eacute
ENCODING 131
SWIDTH 615 0
DWIDTH 16 0
BBX 13 24 2 0
BITMAP
0080
0100
0200
0400
0000
0000
FFF8
2008
2008
2000
2000
2000
2080
2080
3F80
2080
2080
2000
2000
2000
2000
2008
2008
FFF8
ENDCHAR
STARTCHAR Ntilde
ENCODING 132
SWIDTH 769 0
DWIDTH 20 0
BBX 17 23 2 0
BITMAP
070400
088800
107000
000000
000000
F00F80
280200
240200
240200
220200
220200
210200
210200
208200
208200
204200
204200
202200
202200
201200
201200
200A00
F80780
ENDCHAR
STARTCHAR Odieresis
ENCODING 133
SWIDTH 615 0
DWIDTH 18 0
BBX 15 22 2 0
BITMAP
1010
1010
0000
0000
07C0
1830
2008
4004
4004
8002
8002
8002
8002
8002
8002
8002
8002
4004
4004
2008
1830
07C0
ENDCHAR
STARTCHAR Udieresis
ENCODING 134
SWIDTH 769 0
DWIDTH 20 0
BBX 17 22 2 0
BITMAP
080800
080800
000000
000000
F80F80
200200
200200
200200
200200
200200
200200
200200
200200
200200
200200
200200
200200
200200
100400
100400
0C1800
03E000
ENDCHAR
STARTCHAR aacute
ENCODING 135
SWIDTH 615 0
DWIDTH 16 0
BBX 13 19 2 0
BITMAP
0100
0200
0400
0800
0000
0000
0000
1E00
6180
0040
0020
0FA0
3060
4020
8020
8060
80A0
4320
3C38
ENDCHAR
STARTCHAR agrave
ENCODING 136
SWIDTH 615 0
DWIDTH 16 0
BBX 13 19 2 0
BITMAP
0800
0400
0200
0100
0000
0000
0000
1E00
6180
0040
0020
0FA0
3060
4020
8020
8060
80A0
4320
3C38
ENDCHAR
STARTCHAR acircumflex
ENCODING 137
SWIDTH 615 0
DWIDTH 16 0
BBX 13 19 2 0
BITMAP
0400
0A00
1100
2080
0000
0000
0000
1E00
6180
0040
0020
0FA0
3060
4020
8020
8060
80A0
4320
3C38
ENDCHAR
STARTCHAR adieresis
ENCODING 138
SWIDTH 615 0
DWIDTH 16 0
BBX 13 18 2 0
BITMAP
4040
4040
0000
0000
0000
0000
1E00
6180
0040
0020
0FA0
3060
4020
8020
8060
80A0
4320
3C38
ENDCHAR
STARTCHAR atilde
ENCODING 139
SWIDTH 615 0
DWIDTH 16 0
BBX 13 18 2 0
BITMAP
3820
4440
8380
0000
0000
0000
1E00
6180
0040
0020
0FA0
3060
4020
8020
8060
80A0
4320
3C38
ENDCHAR
STARTCHAR aring
ENCODING 140
SWIDTH 615 0
DWIDTH 16 0
BBX 13 20 2 0
BITMAP
0E00
1100
1100
1100
0E00
0000
0000
0000
1E00
6180
0040
0020
0FA0
3060
4020
8020
8060
80A0
4320
3C38
ENDCHAR
STARTCHAR ccedilla
ENCODING 141
SWIDTH 538 0
DWIDTH 14 0
BBX 11 17 2 -5
BITMAP
0F00
30C0
4020
4000
8000
8000
8000
8000
4000
4020
30C0
0F00
0300
0080
0080
0100
0E00
ENDCHAR
STARTCHAR eacute
ENCODING 142
SWIDTH 538 0
DWIDTH 14 0
BBX 11 19 2 0
BITMAP
0100
0200
0400
0800
0000
0000
0000
0F80
3040
4020
4020
80C0
8300
8C00
B000
4000
4000
3040
0F80
ENDCHAR
STARTCHAR egrave
ENCODING 143
SWIDTH 538 0
DWIDTH 14 0
BBX 11 19 2 0
BITMAP
0800
0400
0200
0100
0000
0000
0000
0F80
3040
4020
4020
80C0
8300
8C00
B000
4000
4000
3040
0F80
ENDCHAR
STARTCHAR ecircumflex
ENCODING 144
SWIDTH 538 0
DWIDTH 14 0
BBX 11 19 2 0
BITMAP
0400
0A00
1100
2080
0000
0000
0000
0F80
3040
4020
4020
80C0
8300
8C00
B000
4000
4000
3040
0F80
ENDCHAR
STARTCHAR edieresis
ENCODING 145
SWIDTH 538 0
DWIDTH 14 0
BBX 11 18 2 0
BITMAP
4040
4040
0000
0000
0000
0000
0F80
3040
4020
4020
80C0
8300
8C00
B000
4000
4000
3040
0F80
ENDCHAR
STARTCHAR iacute
ENCODING 146
SWIDTH 307 0
DWIDTH 8 0
BBX 5 19 2 0
BITMAP
10
20
40
80
00
00
00
E0
20
20
20
20
20
20
20
20
20
20
F8
ENDCHAR
STARTCHAR igrave
ENCODING 147
SWIDTH 307 0
DWIDTH 8 0
BBX 5 19 2 0
BITMAP
80
40
20
10
00
00
00
E0
20
20
20
20
20
20
20
20
20
20
F8
ENDCHAR
STARTCHAR icircumflex
ENCODING 148
SWIDTH 307 0
DWIDTH 10 0
BBX 7 19 2 0
BITMAP
10
28
44
82
00
00
00
70
10
10
10
10
10
10
10
10
10
10
7C
ENDCHAR
STARTCHAR idieresis
ENCODING 149
SWIDTH 307 0
DWIDTH 10 0
BBX 5 18 3 0
BITMAP
88
88
00
00
00
00
E0
20
20
20
20
20
20
20
20
20
20
F8
ENDCHAR
STARTCHAR ntilde
ENCODING 150
SWIDTH 692 0
DWIDTH 18 0
BBX 15 18 2 0
BITMAP
0E08
1110
20E0
0000
0000
0000
E1E0
2610
2808
3008
2008
2008
2008
2008
2008
2008
2008
F83E
ENDCHAR
STARTCHAR oacute
ENCODING 151
SWIDTH 538 0
DWIDTH 14 0
BBX 11 19 2 0
BITMAP
0100
0200
0400
0800
0000
0000
0000
0E00
3180
4040
4040
8020
8020
8020
8020
4040
4040
3180
0E00
ENDCHAR
STARTCHAR ograve
ENCODING 152
SWIDTH 538 0
DWIDTH 14 0
BBX 11 19 2 0
BITMAP
1000
0800
0400
0200
0000
0000
0000
0E00
3180
4040
4040
8020
8020
8020
8020
4040
4040
3180
0E00
ENDCHAR
STARTCHAR ocircumflex
ENCODING 153
SWIDTH 538 0
DWIDTH 14 0
BBX 11 19 2 0
BITMAP
0400
0A00
1100
2080
0000
0000
0000
0E00
3180
4040
4040
8020
8020
8020
8020
4040
4040
3180
0E00
ENDCHAR
STARTCHAR odieresis
ENCODING 154
SWIDTH 538 0
DWIDTH 14 0
BBX 11 18 2 0
BITMAP
4040
4040
0000
0000
0000
0000
0E00
3180
4040
4040
8020
8020
8020
8020
4040
4040
3180
0E00
ENDCHAR
STARTCHAR otilde
ENCODING 155
SWIDTH 538 0
DWIDTH 14 0
BBX 11 18 2 0
BITMAP
3820
4440
8380
0000
0000
0000
0E00
3180
4040
4040
8020
8020
8020
8020
4040
4040
3180
0E00
ENDCHAR
STARTCHAR uacute
ENCODING 156
SWIDTH 692 0
DWIDTH 18 0
BBX 15 19 2 0
BITMAP
0080
0100
0200
0400
0000
0000
0000
E038
2008
2008
2008
2008
2008
2008
2008
2018
2028
10C8
0F0E
ENDCHAR
STARTCHAR ugrave
ENCODING 157
SWIDTH 692 0
DWIDTH 18 0
BBX 15 19 2 0
BITMAP
0400
0200
0100
0080
0000
0000
0000
E038
2008
2008
2008
2008
2008
2008
2008
2018
2028
10C8
0F0E
ENDCHAR
STARTCHAR ucircumflex
ENCODING 158
SWIDTH 692 0
DWIDTH 18 0
BBX 15 19 2 0
BITMAP
0200
0500
0880
1040
0000
0000
0000
E038
2008
2008
2008
2008
2008
2008
2008
2018
2028
10C8
0F0E
ENDCHAR
STARTCHAR udieresis
ENCODING 159
SWIDTH 692 0
DWIDTH 18 0
BBX 15 18 2 0
BITMAP
2020
2020
0000
0000
0000
0000
E038
2008
2008
2008
2008
2008
2008
2008
2018
2028
10C8
0F0E
ENDCHAR
STARTCHAR dagger
ENCODING 160
SWIDTH 769 0
DWIDTH 20 0
BBX 17 24 2 0
BITMAP
001000
002000
004000
008000
000000
000000
F80F80
200200
200200
100400
080800
080800
041000
022000
022000
014000
008000
008000
008000
008000
008000
008000
008000
03E000
ENDCHAR
STARTCHAR degree
ENCODING 161
SWIDTH 384 0
DWIDTH 10 0
BBX 7 6 2 12
BITMAP
38
44
82
82
44
38
ENDCHAR
STARTCHAR cent
ENCODING 162
SWIDTH 461 0
DWIDTH 12 0
BBX 9 22 2 -2
BITMAP
0800
0800
0800
0800
0800
3E00
4900
8880
8800
8800
8800
8800
8800
8800
8800
4980
3E00
0800
0800
0800
0800
0800
ENDCHAR
STARTCHAR sterling
ENCODING 163
SWIDTH 615 0
DWIDTH 18 0
BBX 13 18 2 0
BITMAP
0C00
1200
2000
2000
2000
2000
2000
2000
2000
FC00
2000
2000
2000
2000
2000
2008
2010
FFE0
ENDCHAR
STARTCHAR section
ENCODING 164
SWIDTH 538 0
DWIDTH 12 0
BBX 9 25 2 -4
BITMAP
3E00
4100
8080
8080
8000
8000
8000
4000
3E00
4100
8080
8080
8080
8080
8080
4100
3E00
0100
0080
0080
0080
8080
8080
4100
3E00
ENDCHAR
STARTCHAR bullet
ENCODING 165
SWIDTH 461 0
DWIDTH 14 0
BBX 10 10 2 4
BITMAP
0C00
3F00
7F80
7F80
FFC0
FFC0
7F80
7F80
3F00
0C00
ENDCHAR
STARTCHAR paragraph
ENCODING 166
SWIDTH 692 0
DWIDTH 18 0
BBX 15 25 2 -4
BITMAP
0FFE
3FC8
7FC8
7FC8
FFC8
FFC8
FFC8
FFC8
7FC8
7FC8
3FC8
0FC8
0048
0048
0048
0048
0048
0048
0048
0048
0048
0048
0048
0048
0048
ENDCHAR
STARTCHAR germandbls
ENCODING 167
SWIDTH 538 0
DWIDTH 14 0
BBX 11 18 2 0
BITMAP
0700
0880
1040
1040
2040
2080
E700
2080
2040
2040
2020
2020
2020
2020
2020
2440
2440
E380
ENDCHAR
STARTCHAR registered
ENCODING 168
SWIDTH 615 0
DWIDTH 16 0
BBX 13 18 2 0
BITMAP
0F80
0200
0200
0F80
3260
4210
4210
8208
8208
8208
8208
4210
4210
3260
0F80
0200
0200
0F80
ENDCHAR
STARTCHAR copyright
ENCODING 169
SWIDTH 692 0
DWIDTH 20 0
BBX 17 18 2 0
BITMAP
07F000
180C00
200200
400100
43E100
841080
880880
880080
880080
880080
880080
880880
841080
43E100
400100
200200
180C00
07F000
ENDCHAR
STARTCHAR trademark
ENCODING 170
SWIDTH 769 0
DWIDTH 20 0
BBX 17 8 2 10
BITMAP
FE8080
10C180
10A280
109480
108880
108080
108080
108080
ENDCHAR
STARTCHAR acute
ENCODING 171
SWIDTH 230 0
DWIDTH 6 0
BBX 4 4 1 14
BITMAP
10
20
40
80
ENDCHAR
STARTCHAR dieresis
ENCODING 172
SWIDTH 384 0
DWIDTH 12 0
BBX 7 2 3 16
BITMAP
82
82
ENDCHAR
STARTCHAR notequal
ENCODING 173
SWIDTH 615 0
DWIDTH 18 0
BBX 14 14 2 1
BITMAP
0004
0008
0010
0020
FFFC
0080
0100
0200
0400
FFFC
1000
2000
4000
8000
ENDCHAR
STARTCHAR AE
ENCODING 174
SWIDTH 923 0
DWIDTH 24 0
BBX 21 18 2 0
BITMAP
00FFF8
006008
00A008
00A000
012000
012000
022080
022080
07FF80
042080
082080
082000
102000
102000
102000
202008
202008
F8FFF8
ENDCHAR
STARTCHAR Oslash
ENCODING 175
SWIDTH 615 0
DWIDTH 18 0
BBX 15 18 2 0
BITMAP
07C2
1834
2008
4014
4024
8042
8042
8082
8102
8102
8202
8402
8402
4804
5004
2008
5830
87C0
ENDCHAR
STARTCHAR infinity
ENCODING 176
SWIDTH 923 0
DWIDTH 28 0
BBX 25 14 2 2
BITMAP
07007000
18C18C00
20220200
40140100
40140100
80080080
80080080
80080080
80080080
40140100
40140100
20220200
18C18C00
07007000
ENDCHAR
STARTCHAR plusminus
ENCODING 177
SWIDTH 615 0
DWIDTH 18 0
BBX 15 18 2 0
BITMAP
0100
0100
0100
0100
0100
0100
0100
FFFE
0100
0100
0100
0100
0100
0100
0100
0000
0000
FFFE
ENDCHAR
STARTCHAR lessequal
ENCODING 178
SWIDTH 615 0
DWIDTH 18 0
BBX 14 16 2 1
BITMAP
000C
0030
00C0
0300
0C00
3000
C000
3000
0C00
0300
00C0
0030
000C
0000
0000
FFFC
ENDCHAR
STARTCHAR greaterequal
ENCODING 179
SWIDTH 615 0
DWIDTH 18 0
BBX 14 16 2 1
BITMAP
C000
3000
0C00
0300
00C0
0030
000C
0030
00C0
0300
0C00
3000
C000
0000
0000
FFFC
ENDCHAR
STARTCHAR yen
ENCODING 180
SWIDTH 615 0
DWIDTH 16 0
BBX 13 18 2 0
BITMAP
F8F8
2020
2020
1040
1040
0880
0880
0500
0200
3FE0
0200
0200
0200
3FE0
0200
0200
0200
0F80
ENDCHAR
STARTCHAR mu
ENCODING 181
SWIDTH 538 0
DWIDTH 14 0
BBX 11 17 2 -5
BITMAP
8080
8080
8080
8080
8080
8080
8080
8080
8080
8080
C140
BE20
8000
8000
8000
8000
8000
ENDCHAR
STARTCHAR partialdiff
ENCODING 182
SWIDTH 461 0
DWIDTH 14 0
BBX 11 18 2 0
BITMAP
1E00
2100
4000
4000
2000
1000
0E00
3180
4040
4040
8020
8020
8020
8020
4040
4040
3180
0E00
ENDCHAR
STARTCHAR summation
ENCODING 183
SWIDTH 615 0
DWIDTH 16 0
BBX 13 18 2 0
BITMAP
FFF8
4008
2008
1000
0800
0400
0200
0100
0080
0080
0100
0200
0400
0800
1000
2008
4008
FFF8
ENDCHAR
STARTCHAR product
ENCODING 184
SWIDTH 692 0
DWIDTH 20 0
BBX 17 18 2 0
BITMAP
FFFF80
200200
200200
200200
200200
200200
200200
200200
200200
200200
200200
200200
200200
200200
200200
200200
200200
F80F80
ENDCHAR
STARTCHAR pi
ENCODING 185
SWIDTH 615 0
DWIDTH 18 0
BBX 15 14 2 0
BITMAP
0002
0004
3FF8
4810
8810
0810
0810
0810
0810
0810
0810
0810
4812
300C
ENDCHAR
STARTCHAR integral
ENCODING 186
SWIDTH 461 0
DWIDTH 14 0
BBX 11 23 2 -5
BITMAP
1E00
2100
4080
4080
8080
8080
8100
9E00
8180
8040
8040
8020
8020
8020
8040
8040
8180
9E00
8000
8000
8000
8000
8000
ENDCHAR
STARTCHAR ordfeminine
ENCODING 187
SWIDTH 384 0
DWIDTH 10 0
BBX 7 17 2 3
BITMAP
80
80
80
80
80
80
B8
C4
82
82
82
82
84
88
90
A0
C0
ENDCHAR
STARTCHAR ordmasculine
ENCODING 188
SWIDTH 538 0
DWIDTH 14 0
BBX 11 19 2 1
BITMAP
0100
0100
1100
1100
1160
1180
1300
1D00
3100
D160
1180
1300
1D00
3100
D100
1100
1100
1000
1000
ENDCHAR
STARTCHAR Omega
ENCODING 189
SWIDTH 615 0
DWIDTH 18 0
BBX 15 18 2 0
BITMAP
07C0
1830
2008
4004
4004
8002
8002
8002
8002
8002
4004
4004
2008
1010
1010
8822
8822
F83E
ENDCHAR
STARTCHAR ae
ENCODING 190
SWIDTH 923 0
DWIDTH 25 0
BBX 21 12 2 0
BITMAP
1E03E0
618C10
005008
002008
0FA030
3060C0
402300
802C00
807000
809010
430C20
3C03C0
ENDCHAR
STARTCHAR oslash
ENCODING 191
SWIDTH 538 0
DWIDTH 14 0
BBX 11 12 2 0
BITMAP
0E20
31A0
4040
40C0
8120
8620
8820
9020
6040
4040
B180
8E00
ENDCHAR
STARTCHAR questiondown
ENCODING 192
SWIDTH 461 0
DWIDTH 13 0
BBX 10 17 2 -5
BITMAP
0800
0800
0000
0000
0800
0800
0800
1000
2000
4000
8000
8000
8040
8040
8040
4080
3F00
ENDCHAR
STARTCHAR exclamdown
ENCODING 193
SWIDTH 307 0
DWIDTH 8 0
BBX 1 17 4 -5
BITMAP
80
80
00
00
80
80
80
80
80
80
80
80
80
80
80
80
80
ENDCHAR
STARTCHAR logicalnot
ENCODING 194
SWIDTH 615 0
DWIDTH 16 0
BBX 13 23 2 -5
BITMAP
0200
0200
0200
0200
0200
0200
4210
4210
8208
8208
8208
8208
8208
8208
4210
4210
2220
1FC0
0200
0200
0200
0200
0200
ENDCHAR
STARTCHAR radical
ENCODING 195
SWIDTH 615 0
DWIDTH 18 0
BBX 16 29 2 -5
BITMAP
0001
0001
0002
0002
0002
0004
0004
0004
0008
0008
0008
0010
0010
0020
8020
8020
8040
4040
4040
2080
2080
2100
1100
1100
0A00
0A00
0A00
0400
0400
ENDCHAR
STARTCHAR florin
ENCODING 196
SWIDTH 461 0
DWIDTH 16 0
BBX 13 23 2 -5
BITMAP
0200
0200
0200
0200
0200
0200
0F80
3260
4210
4210
8208
8208
8208
8208
4210
4210
3260
0F80
0200
0200
0200
0200
0200
ENDCHAR
STARTCHAR approxequal
ENCODING 197
SWIDTH 615 0
DWIDTH 18 0
BBX 14 9 2 4
BITMAP
1C04
2208
4110
80E0
0000
1C04
2208
4110
80E0
ENDCHAR
STARTCHAR Delta
ENCODING 198
SWIDTH 769 0
DWIDTH 20 0
BBX 17 18 2 0
BITMAP
008000
008000
014000
014000
022000
022000
041000
041000
080800
080800
100400
100400
200200
200200
400100
400100
800080
FFFF80
ENDCHAR
STARTCHAR guillemotleft
ENCODING 199
SWIDTH 538 0
DWIDTH 16 0
BBX 13 13 2 0
BITMAP
0208
0410
0820
1040
2080
4100
8200
4100
2080
1040
0820
0410
0208
ENDCHAR
STARTCHAR guillemotright
ENCODING 200
SWIDTH 538 0
DWIDTH 16 0
BBX 13 13 2 0
BITMAP
8200
4100
2080
1040
0820
0410
0208
0410
0820
1040
2080
4100
8200
ENDCHAR
STARTCHAR ellipsis
ENCODING 201
SWIDTH 1692 0
DWIDTH 48 0
BBX 33 2 7 0
BITMAP
8000800080
8000800080
ENDCHAR
STARTCHAR uni00A0
ENCODING 202
SWIDTH 76 0
DWIDTH 2 0
BBX 1 1 2 -6
BITMAP
00
ENDCHAR
STARTCHAR Agrave
ENCODING 203
SWIDTH 923 0
DWIDTH 26 0
BBX 20 20 4 0
BITMAP
200800
600800
A01000
201000
202000
202000
204000
204000
208FF0
208820
210040
210080
020100
0203C0
040020
040010
080010
080810
100420
1003C0
ENDCHAR
STARTCHAR Atilde
ENCODING 204
SWIDTH 923 0
DWIDTH 26 0
BBX 21 20 4 0
BITMAP
FF0100
820100
040200
080200
100400
3C0400
020800
010800
011020
811060
4220A0
3C2120
004220
004420
008820
009FF8
010020
010020
020020
020070
ENDCHAR
STARTCHAR Otilde
ENCODING 205
SWIDTH 615 0
DWIDTH 18 0
BBX 15 23 2 0
BITMAP
0E08
1110
20E0
0000
0000
07C0
1830
2008
4004
4004
8002
8002
8002
8002
8002
8002
8002
8002
4004
4004
2008
1830
07C0
ENDCHAR
STARTCHAR OE
ENCODING 206
SWIDTH 1000 0
DWIDTH 26 0
BBX 23 18 2 0
BITMAP
07FFFE
181002
201002
401000
401000
401000
801000
801040
801FC0
801040
801000
801000
401000
401000
401000
201002
181002
07FFFE
ENDCHAR
STARTCHAR oe
ENCODING 207
SWIDTH 923 0
DWIDTH 24 0
BBX 21 12 2 0
BITMAP
0E03C0
318C30
405008
405008
802030
8020C0
802300
802C00
405000
405000
318C10
0E03E0
ENDCHAR
STARTCHAR endash
ENCODING 208
SWIDTH 384 0
DWIDTH 12 0
BBX 7 1 3 6
BITMAP
FE
ENDCHAR
STARTCHAR emdash
ENCODING 209
SWIDTH 1076 0
DWIDTH 30 0
BBX 25 1 3 6
BITMAP
FFFFFF80
ENDCHAR
STARTCHAR quotedblleft
ENCODING 210
SWIDTH 538 0
DWIDTH 14 0
BBX 8 5 2 13
BITMAP
21
42
84
84
E7
ENDCHAR
STARTCHAR quotedblright
ENCODING 211
SWIDTH 538 0
DWIDTH 14 0
BBX 8 5 4 13
BITMAP
E7
21
21
42
84
ENDCHAR
STARTCHAR quoteleft
ENCODING 212
SWIDTH 307 0
DWIDTH 8 0
BBX 3 5 2 13
BITMAP
20
40
80
80
E0
ENDCHAR
STARTCHAR quoteright
ENCODING 213
SWIDTH 307 0
DWIDTH 8 0
BBX 3 5 3 13
BITMAP
E0
20
20
40
80
ENDCHAR
STARTCHAR divide
ENCODING 214
SWIDTH 615 0
DWIDTH 18 0
BBX 15 13 2 2
BITMAP
0100
0100
0000
0000
0000
0000
FFFE
0000
0000
0000
0000
0100
0100
ENDCHAR
STARTCHAR lozenge
ENCODING 215
SWIDTH 615 0
DWIDTH 18 0
BBX 15 15 2 1
BITMAP
8002
4004
2008
1010
0820
0440
0280
0100
0280
0440
0820
1010
2008
4004
8002
ENDCHAR
STARTCHAR ydieresis
ENCODING 216
SWIDTH 692 0
DWIDTH 18 0
BBX 17 23 1 -5
BITMAP
080800
080800
000000
000000
000000
000000
F80F80
200200
100400
100400
080800
041000
041000
022000
014000
014000
008000
008000
010000
010000
020000
040000
380000
ENDCHAR
STARTCHAR Ydieresis
ENCODING 217
SWIDTH 615 0
DWIDTH 18 0
BBX 14 8 2 5
BITMAP
1C04
2208
4110
80E0
0000
0000
0000
FFFC
ENDCHAR
STARTCHAR fraction
ENCODING 218
SWIDTH 923 0
DWIDTH 28 0
BBX 24 17 2 0
BITMAP
000010
000008
000004
000002
FFFFFF
000002
000004
000008
080010
100000
200000
400000
FFFFFF
400000
200000
100000
080000
ENDCHAR
STARTCHAR currency
ENCODING 219
SWIDTH 923 0
DWIDTH 26 0
BBX 20 20 4 0
BITMAP
200800
600800
A01000
201000
202000
202000
204000
204000
2083C0
208420
210810
210010
020010
020020
040040
040180
080200
080400
100810
100FF0
ENDCHAR
STARTCHAR guilsinglleft
ENCODING 220
SWIDTH 615 0
DWIDTH 18 0
BBX 15 18 2 0
BITMAP
FFC0
2030
2008
2004
2004
2002
2002
2002
F802
2002
2002
2002
2002
2004
2004
2008
2030
FFC0
ENDCHAR
STARTCHAR guilsinglright
ENCODING 221
SWIDTH 538 0
DWIDTH 14 0
BBX 11 18 2 0
BITMAP
7100
0A00
0400
0A00
1100
0080
0F40
30C0
4020
4020
8020
8020
8020
8020
4040
4040
3180
0E00
ENDCHAR
STARTCHAR uniFB01
ENCODING 222
SWIDTH 538 0
DWIDTH 17 0
BBX 14 18 2 0
BITMAP
F800
2000
2000
3FC0
2030
2008
2008
2004
2004
2004
2008
2008
2030
3FC0
2000
2000
2000
F800
ENDCHAR
STARTCHAR uniFB02
ENCODING 223
SWIDTH 615 0
DWIDTH 16 0
BBX 13 23 2 -5
BITMAP
2000
E000
2000
2000
2000
2000
2780
2860
3010
2010
2008
2008
2008
2008
2010
3010
2860
2780
2000
2000
2000
2000
F800
ENDCHAR
STARTCHAR daggerdbl
ENCODING 224
SWIDTH 692 0
DWIDTH 18 0
BBX 17 24 1 -5
BITMAP
001000
002000
004000
008000
000000
000000
000000
F80F80
200200
100400
100400
080800
041000
041000
022000
014000
014000
008000
008000
010000
010000
020000
040000
380000
ENDCHAR
STARTCHAR periodcentered
ENCODING 225
SWIDTH 923 0
DWIDTH 28 0
BBX 24 11 2 3
BITMAP
000020
000010
000008
000004
000002
FFFFFF
000002
000004
000008
000010
000020
ENDCHAR
STARTCHAR quotesinglbase
ENCODING 226
SWIDTH 923 0
DWIDTH 28 0
BBX 24 11 2 3
BITMAP
040000
080000
100000
200000
400000
FFFFFF
400000
200000
100000
080000
040000
ENDCHAR
STARTCHAR quotedblbase
ENCODING 227
SWIDTH 615 0
DWIDTH 18 0
BBX 15 18 2 0
BITMAP
FFFE
8002
8002
0000
0000
0000
1010
1010
1FF0
1010
1010
0000
0000
0000
0000
8002
8002
FFFE
ENDCHAR
STARTCHAR perthousand
ENCODING 228
SWIDTH 384 0
DWIDTH 12 0
BBX 9 12 2 0
BITMAP
0F00
3080
4000
8000
8000
FE00
8000
8000
8000
4000
3080
0F00
ENDCHAR
STARTCHAR Acircumflex
ENCODING 229
SWIDTH 923 0
DWIDTH 26 0
BBX 19 20 5 0
BITMAP
200800
600800
A01000
201000
202000
202000
204000
204000
208080
208180
210280
210480
020880
021080
042080
047FE0
080080
080080
100080
1001C0
ENDCHAR
STARTCHAR Ecircumflex
ENCODING 230
SWIDTH 461 0
DWIDTH 14 0
BBX 11 12 2 0
BITMAP
7FE0
8400
0400
0400
0400
0400
0400
0400
0400
0400
0480
0300
ENDCHAR
STARTCHAR Aacute
ENCODING 231
SWIDTH 769 0
DWIDTH 20 0
BBX 17 24 2 0
BITMAP
001000
002000
004000
008000
000000
000000
008000
008000
014000
014000
022000
022000
041000
041000
041000
080800
080800
0FF800
100400
100400
100400
200200
200200
F80F80
ENDCHAR
STARTCHAR Edieresis
ENCODING 232
SWIDTH 692 0
DWIDTH 18 0
BBX 15 18 2 0
BITMAP
07C0
1830
2008
4004
4004
8002
8822
8822
8FE2
8822
8822
8002
8002
4004
4004
2008
1830
07C0
ENDCHAR
STARTCHAR Egrave
ENCODING 233
SWIDTH 769 0
DWIDTH 20 0
BBX 17 18 2 0
BITMAP
43E100
A08280
208200
208200
208200
208200
208200
108400
108400
0C9800
03E000
008000
008000
008000
008000
008000
008000
03E000
ENDCHAR
STARTCHAR Iacute
ENCODING 234
SWIDTH 384 0
DWIDTH 10 0
BBX 6 24 3 0
BITMAP
04
08
10
20
00
00
F8
20
20
20
20
20
20
20
20
20
20
20
20
20
20
20
20
F8
ENDCHAR
STARTCHAR Icircumflex
ENCODING 235
SWIDTH 769 0
DWIDTH 24 0
BBX 21 12 2 0
BITMAP
100040
200020
400010
400010
802008
802008
802008
802008
405010
405010
318C60
0E0380
ENDCHAR
STARTCHAR Idieresis
ENCODING 236
SWIDTH 538 0
DWIDTH 16 0
BBX 13 12 2 0
BITMAP
0E08
3188
4050
4050
8020
8020
8020
8020
4050
4050
3188
0E08
ENDCHAR
STARTCHAR Igrave
ENCODING 237
SWIDTH 538 0
DWIDTH 18 0
BBX 15 17 2 -5
BITMAP
6002
9002
8804
0404
0408
0210
0210
0220
0120
0140
0140
0080
0080
0080
0080
1100
0E00
ENDCHAR
STARTCHAR Oacute
ENCODING 238
SWIDTH 615 0
DWIDTH 18 0
BBX 15 24 2 0
BITMAP
0020
0040
0080
0100
0000
0000
07C0
1830
2008
4004
4004
8002
8002
8002
8002
8002
8002
8002
8002
4004
4004
2008
1830
07C0
ENDCHAR
STARTCHAR Ocircumflex
ENCODING 239
SWIDTH 615 0
DWIDTH 18 0
BBX 15 18 2 0
BITMAP
FFFE
2002
2002
2000
2000
2000
2000
2000
2000
2000
2000
2000
2000
2000
2000
2000
2000
F800
ENDCHAR
STARTCHAR NameMe.240
ENCODING 240
SWIDTH 461 0
DWIDTH 12 0
BBX 9 12 2 0
BITMAP
8180
4200
4400
4800
5000
6000
6000
5000
4800
4400
4200
8180
ENDCHAR
STARTCHAR Ograve
ENCODING 241
SWIDTH 538 0
DWIDTH 14 0
BBX 11 18 2 0
BITMAP
C000
2000
1000
1000
0800
0800
0C00
1400
2200
2200
4100
4100
8080
8080
8040
8040
8020
8020
ENDCHAR
STARTCHAR Uacute
ENCODING 242
SWIDTH 769 0
DWIDTH 20 0
BBX 17 24 2 0
BITMAP
001000
002000
004000
008000
000000
000000
F80F80
200200
200200
200200
200200
200200
200200
200200
200200
200200
200200
200200
200200
200200
100400
100400
0C1800
03E000
ENDCHAR
STARTCHAR Ucircumflex
ENCODING 243
SWIDTH 461 0
DWIDTH 12 0
BBX 9 23 2 -5
BITMAP
8080
4100
3E00
0800
1000
1000
2000
2000
4000
4000
4000
8000
8000
8000
8000
8000
4000
3E00
0100
0080
0080
0100
3E00
ENDCHAR
STARTCHAR Ugrave
ENCODING 244
SWIDTH 538 0
DWIDTH 16 0
BBX 13 17 2 -5
BITMAP
6008
9008
1010
0820
0840
0840
0480
0500
0200
0600
0900
1100
1080
2080
4040
8048
8030
ENDCHAR
STARTCHAR dotlessi
ENCODING 245
SWIDTH 538 0
DWIDTH 16 0
BBX 13 12 2 0
BITMAP
6040
9020
1010
1010
1008
1008
1008
1008
1010
1010
0860
0780
ENDCHAR
STARTCHAR circumflex
ENCODING 246
SWIDTH 692 0
DWIDTH 20 0
BBX 17 18 2 0
BITMAP
3E3E00
414100
808080
808080
808080
808080
008000
008000
008000
008000
008000
008000
008000
008000
008000
008000
008000
03E000
ENDCHAR
STARTCHAR tilde
ENCODING 247
SWIDTH 461 0
DWIDTH 14 0
BBX 11 12 2 0
BITMAP
C040
2020
1020
1020
0820
0820
0840
0440
0480
0500
0600
0400
ENDCHAR
STARTCHAR macron
ENCODING 248
SWIDTH 384 0
DWIDTH 10 0
BBX 6 18 2 2
BITMAP
80
80
80
84
8C
94
A4
C4
84
84
8C
94
A4
C4
84
04
04
04
ENDCHAR
STARTCHAR breve
ENCODING 249
SWIDTH 615 0
DWIDTH 18 0
BBX 14 11 2 2
BITMAP
FFFC
0000
0000
0000
0000
FFFC
0000
0000
0000
0000
FFFC
ENDCHAR
STARTCHAR dotaccent
ENCODING 250
SWIDTH 538 0
DWIDTH 16 0
BBX 13 17 2 -5
BITMAP
63E0
9410
1808
1008
1008
1008
1008
1008
1008
1008
1008
1008
0008
0008
0008
0008
0008
ENDCHAR
STARTCHAR ring
ENCODING 251
SWIDTH 307 0
DWIDTH 8 0
BBX 5 12 2 0
BITMAP
80
80
80
80
80
80
80
80
80
88
88
70
ENDCHAR
STARTCHAR cedilla
ENCODING 252
SWIDTH 8500 0
DWIDTH 255 0
BBX 1 1 252 -6
BITMAP
00
ENDCHAR
STARTCHAR hungarumlaut
ENCODING 253
SWIDTH 2000 0
DWIDTH 60 0
BBX 59 22 0 1
BITMAP
3C271C10138E7800
4268A23034514000
9928A25014514000
A128A29114517800
A1279CFB93CE0400
9920A21110510400
4220A21010510400
3C271C10138E7800
0000000000000000
0000000000000000
CA06A4604492CEC0
AA08AA806D52A8A0
C408EE4055D2CCC0
A408AA204552A8A0
C406AAC8454CAEA0
0000000000000000
0000000000000000
488326570CE6AC00
A882A8520A88AA00
E8832B720CC4AA00
A882A9520A82AA00
AEE2A7520AEC4C80
ENDCHAR
ENDFONT
